<?xml version="1.0" encoding="UTF-8"?>
<svg id="Lag_1" data-name="Lag 1" xmlns="http://www.w3.org/2000/svg" viewBox="0 0 85.37 111.82">
  <defs>
    <style>
      .cls-1 {
        fill: #fdfdfd;
        stroke-width: 0px;
      }
    </style>
  </defs>
  <path class="cls-1" d="m41.06,35.4c-2.81,2.96-5.62,5.93-8.44,8.89v5.84h8.44v-14.73Z"/>
  <path class="cls-1" d="m44.31,35.4c2.81,2.96,5.62,5.93,8.44,8.89v5.84h-8.44v-14.73Z"/>
  <rect class="cls-1" x="32.63" y="52.73" width="8.44" height="14.28"/>
  <rect class="cls-1" x="44.31" y="52.73" width="8.44" height="14.28"/>
  <path class="cls-1" d="m42.84,0C19.35,0,.31,19.04.31,42.53c0,6.07,1.63,11.69,1.63,11.69,1.23,4.09,2.93,7.25,4.27,9.38L42.88,26.94l36.81,36.81c3.6-6.25,5.68-13.49,5.68-21.22C85.37,19.04,66.33,0,42.84,0Zm23.74,23.25c.33-.32,1.08-1.14,1.41-2.46.1.45.39,1.52,1.34,2.5.32.33,1.14,1.08,2.46,1.41-.45.1-1.52.39-2.5,1.34-.33.32-1.08,1.14-1.41,2.46-.1-.45-.39-1.52-1.34-2.5-.32-.33-1.14-1.08-2.46-1.41.45-.1,1.52-.39,2.5-1.34Zm-13.17-10.37c.49-.48,1.62-1.7,2.11-3.67.15.67.59,2.28,2,3.73.48.49,1.7,1.62,3.67,2.11-.67.15-2.28.59-3.73,2-.49.48-1.62,1.7-2.11,3.67-.15-.67-.59-2.28-2-3.73-.48-.49-1.7-1.62-3.67-2.11.67-.15,2.28-.59,3.73-2Zm18.14,37.67l-28.55-28.55-28.6,28.6-2.33-2.33,16.23-15.7v-11.19h4.29v7.07l10.47-10.47,30.52,30.52-2.04,2.04Zm.85-12.2c-.25.24-.82.86-1.06,1.85-.07-.34-.3-1.15-1.01-1.88-.24-.25-.86-.82-1.85-1.06.34-.07,1.15-.3,1.88-1.01.25-.24.82-.86,1.06-1.85.07.34.3,1.15,1.01,1.88.24.25.86.82,1.85,1.06-.34.07-1.15.3-1.88,1.01Z"/>
  <g>
    <path class="cls-1" d="m1.45,108.03v3.68H.35v-8.34h3.26c1.71,0,2.63.93,2.63,2.23,0,1.08-.62,1.74-1.42,1.96.68.18,1.27.69,1.27,2.14v.36c0,.58-.03,1.3.11,1.65h-1.08c-.15-.36-.14-1.01-.14-1.79v-.18c0-1.19-.34-1.71-1.83-1.71h-1.71Zm0-.93h1.81c1.28,0,1.84-.48,1.84-1.42,0-.89-.58-1.39-1.71-1.39h-1.94v2.81Z"/>
    <path class="cls-1" d="m15.39,107.8h-4.15v2.95h4.56l-.14.95h-5.5v-8.34h5.43v.95h-4.35v2.55h4.15v.95Z"/>
    <path class="cls-1" d="m19.34,111.7v-8.34h1.46c1.2,1.95,3.8,6.1,4.27,7.01h.02c-.08-1.07-.07-2.39-.07-3.75v-3.26h1.05v8.34h-1.38c-1.1-1.81-3.82-6.28-4.34-7.21h-.02c.06.95.06,2.37.06,3.87v3.34h-1.05Z"/>
    <path class="cls-1" d="m37.08,111.7h-.85c-.06-.16-.09-.53-.11-1.13-.36.59-1.08,1.24-2.59,1.24-2.41,0-3.68-1.83-3.68-4.2,0-2.5,1.37-4.38,3.89-4.38,1.94,0,3.16,1.05,3.4,2.54h-1.11c-.28-.93-.95-1.62-2.32-1.62-1.94,0-2.71,1.55-2.71,3.4,0,1.72.77,3.32,2.66,3.32s2.33-1.24,2.33-2.65v-.09h-2.35v-.95h3.43v4.51Z"/>
    <path class="cls-1" d="m48.48,107.48c0,2.36-1.29,4.34-3.94,4.34-2.44,0-3.83-1.94-3.83-4.29s1.44-4.29,3.92-4.29c2.35,0,3.84,1.81,3.84,4.24Zm-.64-4.12l-5.93,8.34h-.85l5.94-8.34h.84Zm-6.01,4.14c0,1.76.94,3.41,2.76,3.41,1.93,0,2.75-1.53,2.75-3.4s-.92-3.34-2.75-3.34-2.76,1.41-2.76,3.33Z"/>
    <path class="cls-1" d="m53.33,108.03v3.68h-1.1v-8.34h3.26c1.71,0,2.63.93,2.63,2.23,0,1.08-.62,1.74-1.42,1.96.68.18,1.27.69,1.27,2.14v.36c0,.58-.03,1.3.11,1.65h-1.08c-.15-.36-.14-1.01-.14-1.79v-.18c0-1.19-.34-1.71-1.83-1.71h-1.71Zm0-.93h1.81c1.28,0,1.84-.48,1.84-1.42,0-.89-.58-1.39-1.71-1.39h-1.94v2.81Z"/>
    <path class="cls-1" d="m63.15,103.36v8.34h-1.11v-8.34h1.11Z"/>
    <path class="cls-1" d="m67.45,111.7v-8.34h1.46c1.2,1.95,3.8,6.1,4.27,7.01h.02c-.08-1.07-.07-2.39-.07-3.75v-3.26h1.05v8.34h-1.38c-1.1-1.81-3.82-6.28-4.34-7.21h-.02c.06.95.06,2.37.06,3.87v3.34h-1.05Z"/>
    <path class="cls-1" d="m85.19,111.7h-.85c-.06-.16-.09-.53-.11-1.13-.36.59-1.08,1.24-2.59,1.24-2.41,0-3.68-1.83-3.68-4.2,0-2.5,1.37-4.38,3.89-4.38,1.94,0,3.16,1.05,3.4,2.54h-1.11c-.28-.93-.95-1.62-2.31-1.62-1.94,0-2.71,1.55-2.71,3.4,0,1.72.77,3.32,2.66,3.32s2.33-1.24,2.33-2.65v-.09h-2.35v-.95h3.43v4.51Z"/>
  </g>
  <g>
    <path class="cls-1" d="m12.63,82.36l.39.81c.26.54.39,1.1.39,1.68v.33c0,.64-.15,1.22-.44,1.74-.29.52-.67.97-1.12,1.33-.46.37-.99.66-1.58.86s-1.19.3-1.78.3H1.95l-.03,6.78.51.84H0l.48-.87.03-14.85-.42-.87h8.4c.68,0,1.32.12,1.92.36.6.24,1.34.76,2.22,1.56Zm-10.68,6.78h6.27c.76,0,1.44-.22,2.04-.66.6-.44,1.04-1.01,1.32-1.71l.03-.09c.18-.52.27-1.06.27-1.62s-.1-1.13-.28-1.67c-.19-.53-.45-1-.78-1.4-.33-.4-.72-.71-1.15-.94-.44-.23-.92-.35-1.44-.35H2.28l-.33.6v7.83Z"/>
    <path class="cls-1" d="m16.11,96.43c-.58-.64-.95-1.33-1.11-2.07-.16-.74-.05-1.6.33-2.58l.33-.84c.08-.16.15-.32.21-.48.06-.16.13-.32.21-.48l4.08-9.96,6.66,16.14.57.63h-2.79l.33-.63-2.52-6.18h-6.03l-.72,1.8c-.12.3-.16.61-.12.92.04.31.11.6.21.85.1.26.21.47.33.63l.15.27.33.33c.2.2.4.35.6.45l.24.12-.54,1.68c-.14-.1-.27-.2-.39-.3l-.36-.3Zm3.3-13.8l-2.88,7.05h5.76l-2.88-7.05Z"/>
    <path class="cls-1" d="m29.31,81.31l-.42-.87h2.37l-.48.9-.03,9.87c0,.76.14,1.48.44,2.15.29.67.68,1.25,1.19,1.75.5.5,1.08.9,1.75,1.18.67.29,1.38.44,2.15.44.7,0,1.39-.15,2.07-.45.68-.3,1.29-.7,1.81-1.2.53-.5.96-1.08,1.27-1.75s.48-1.38.48-2.12l-.03-10.05-.54-.81h1.38l-.54.81v9.66c0,.9-.17,1.75-.51,2.54-.34.79-.8,1.47-1.38,2.05-.58.58-1.26,1.04-2.04,1.37-.78.33-1.62.5-2.52.5s-1.71-.17-2.49-.51c-.78-.34-1.46-.81-2.04-1.4s-1.04-1.28-1.38-2.07c-.34-.79-.51-1.63-.51-2.53v-9.45Z"/>
    <path class="cls-1" d="m46.02,96.16l.3.54h6.24c.44,0,.83-.09,1.17-.29.34-.19.62-.42.86-.69.23-.27.41-.56.54-.86.13-.3.2-.55.22-.75l.06-.27,1.68-.03-.18.66c-.38.96-.91,1.62-1.59,1.98-.68.36-1.51.54-2.49.54h-6c-.46.02-.91.03-1.35.03h-1.41l.48-.87.03-14.97-.42-.84h2.34l-.48.84v14.97Z"/>
    <path class="cls-1" d="m59.79,96.43c-.58-.64-.95-1.33-1.11-2.07s-.05-1.6.33-2.58l.33-.84c.08-.16.15-.32.21-.48.06-.16.13-.32.21-.48l4.08-9.96,6.66,16.14.57.63h-2.79l.33-.63-2.52-6.18h-6.03l-.72,1.8c-.12.3-.16.61-.12.92.04.31.11.6.21.85.1.26.21.47.33.63l.15.27.33.33c.2.2.4.35.6.45l.24.12-.54,1.68c-.14-.1-.27-.2-.39-.3l-.36-.3Zm3.3-13.8l-2.88,7.05h5.76l-2.88-7.05Z"/>
    <path class="cls-1" d="m75.69,96.64l-.75-.48c-.52-.3-.97-.72-1.37-1.27-.39-.55-.72-1.25-1-2.09l1.77-1.77c-.04.36-.06.77-.05,1.23.01.46.06.91.15,1.36s.22.87.41,1.26c.18.39.43.7.75.94.24.18.47.33.71.44.23.11.48.21.76.28.6.12,1.15.18,1.65.18,1.12,0,2.04-.21,2.77-.65.73-.43,1.25-.95,1.58-1.57.32-.62.42-1.28.32-1.97-.11-.69-.46-1.3-1.04-1.84-.32-.28-.78-.51-1.37-.69-.59-.18-1.22-.34-1.89-.48-.67-.14-1.33-.26-1.98-.38-.65-.11-1.2-.23-1.63-.38-.78-.3-1.4-.71-1.86-1.25-.46-.53-.76-1.1-.92-1.72-.15-.62-.14-1.25.03-1.88s.51-1.21,1.02-1.73c.51-.52,1.19-.94,2.04-1.27.85-.33,1.87-.5,3.05-.5.8,0,1.53.06,2.19.18s1.25.34,1.77.66c.52.32.97.75,1.35,1.29s.7,1.23.96,2.07l-1.74,1.77c.06-.56.05-1.19-.01-1.91-.07-.71-.25-1.35-.53-1.93v-.06c-.18-.34-.42-.63-.72-.87-.18-.16-.37-.29-.57-.38-.2-.09-.38-.17-.54-.23-.3-.14-.67-.23-1.12-.27-.45-.04-.84-.06-1.18-.06-1.2,0-2.16.22-2.88.65s-1.21.96-1.49,1.58c-.27.62-.31,1.28-.13,1.98s.57,1.32,1.17,1.86c.34.28.8.51,1.38.69.58.18,1.2.34,1.86.46.66.13,1.31.25,1.96.36.65.11,1.19.25,1.63.41.8.28,1.44.69,1.92,1.21.48.53.79,1.1.93,1.71.14.61.12,1.24-.06,1.88-.18.64-.52,1.23-1.04,1.75-.51.53-1.19.96-2.04,1.29-.85.33-1.87.5-3.04.5-.8,0-1.86-.13-3.18-.39Z"/>
  </g>
</svg>